<mxfile host="app.diagrams.net" modified="2022-05-23T00:22:51.540Z" agent="5.0 (Windows NT 10.0; Win64; x64) AppleWebKit/537.36 (KHTML, like Gecko) Chrome/101.0.4951.64 Safari/537.36 Edg/101.0.1210.53" etag="xmOTPoRRKHixqCzOsyPZ" version="18.1.1" type="github">
  <diagram id="CatGwjAjgYlTpP3C3ohn" name="Page-1">
    <mxGraphModel dx="2249" dy="762" grid="1" gridSize="10" guides="1" tooltips="1" connect="1" arrows="1" fold="1" page="1" pageScale="1" pageWidth="827" pageHeight="1169" math="0" shadow="0">
      <root>
        <mxCell id="0" />
        <mxCell id="1" parent="0" />
        <mxCell id="Y89IQ3x-4kfNNYNhtDqU-10" value="" style="edgeStyle=orthogonalEdgeStyle;rounded=0;orthogonalLoop=1;jettySize=auto;html=1;endArrow=none;endFill=0;" edge="1" parent="1" source="Y89IQ3x-4kfNNYNhtDqU-1" target="Y89IQ3x-4kfNNYNhtDqU-9">
          <mxGeometry relative="1" as="geometry" />
        </mxCell>
        <mxCell id="Y89IQ3x-4kfNNYNhtDqU-1" value="Usuário" style="rounded=0;whiteSpace=wrap;html=1;" vertex="1" parent="1">
          <mxGeometry x="120" y="150" width="120" height="60" as="geometry" />
        </mxCell>
        <mxCell id="Y89IQ3x-4kfNNYNhtDqU-3" value="N" style="edgeStyle=orthogonalEdgeStyle;rounded=0;orthogonalLoop=1;jettySize=auto;html=1;exitX=0;exitY=1;exitDx=0;exitDy=0;entryX=0.25;entryY=0;entryDx=0;entryDy=0;endArrow=none;endFill=0;" edge="1" parent="1" source="Y89IQ3x-4kfNNYNhtDqU-2" target="Y89IQ3x-4kfNNYNhtDqU-1">
          <mxGeometry x="-0.1034" y="-10" relative="1" as="geometry">
            <mxPoint as="offset" />
          </mxGeometry>
        </mxCell>
        <mxCell id="Y89IQ3x-4kfNNYNhtDqU-4" value="N" style="edgeStyle=orthogonalEdgeStyle;rounded=0;orthogonalLoop=1;jettySize=auto;html=1;exitX=1;exitY=1;exitDx=0;exitDy=0;entryX=0.75;entryY=0;entryDx=0;entryDy=0;endArrow=none;endFill=0;" edge="1" parent="1" source="Y89IQ3x-4kfNNYNhtDqU-2" target="Y89IQ3x-4kfNNYNhtDqU-1">
          <mxGeometry x="-0.1034" y="10" relative="1" as="geometry">
            <mxPoint as="offset" />
          </mxGeometry>
        </mxCell>
        <mxCell id="Y89IQ3x-4kfNNYNhtDqU-2" value="matches" style="rhombus;whiteSpace=wrap;html=1;" vertex="1" parent="1">
          <mxGeometry x="120" y="40" width="120" height="50" as="geometry" />
        </mxCell>
        <mxCell id="Y89IQ3x-4kfNNYNhtDqU-6" style="edgeStyle=orthogonalEdgeStyle;rounded=0;orthogonalLoop=1;jettySize=auto;html=1;exitX=0.5;exitY=0;exitDx=0;exitDy=0;entryX=0.5;entryY=1;entryDx=0;entryDy=0;endArrow=none;endFill=0;" edge="1" parent="1" source="Y89IQ3x-4kfNNYNhtDqU-5" target="Y89IQ3x-4kfNNYNhtDqU-1">
          <mxGeometry relative="1" as="geometry" />
        </mxCell>
        <mxCell id="Y89IQ3x-4kfNNYNhtDqU-8" style="edgeStyle=orthogonalEdgeStyle;rounded=0;orthogonalLoop=1;jettySize=auto;html=1;exitX=0.5;exitY=1;exitDx=0;exitDy=0;endArrow=none;endFill=0;" edge="1" parent="1" source="Y89IQ3x-4kfNNYNhtDqU-5" target="Y89IQ3x-4kfNNYNhtDqU-7">
          <mxGeometry relative="1" as="geometry" />
        </mxCell>
        <mxCell id="Y89IQ3x-4kfNNYNhtDqU-5" value="" style="rhombus;whiteSpace=wrap;html=1;" vertex="1" parent="1">
          <mxGeometry x="137.5" y="240" width="85" height="40" as="geometry" />
        </mxCell>
        <mxCell id="Y89IQ3x-4kfNNYNhtDqU-7" value="Gênero" style="rounded=0;whiteSpace=wrap;html=1;" vertex="1" parent="1">
          <mxGeometry x="120" y="320" width="120" height="60" as="geometry" />
        </mxCell>
        <mxCell id="Y89IQ3x-4kfNNYNhtDqU-12" value="" style="edgeStyle=orthogonalEdgeStyle;rounded=0;orthogonalLoop=1;jettySize=auto;html=1;endArrow=none;endFill=0;" edge="1" parent="1" source="Y89IQ3x-4kfNNYNhtDqU-9" target="Y89IQ3x-4kfNNYNhtDqU-11">
          <mxGeometry relative="1" as="geometry" />
        </mxCell>
        <mxCell id="Y89IQ3x-4kfNNYNhtDqU-9" value="" style="rhombus;whiteSpace=wrap;html=1;rounded=0;" vertex="1" parent="1">
          <mxGeometry y="160" width="80" height="40" as="geometry" />
        </mxCell>
        <mxCell id="Y89IQ3x-4kfNNYNhtDqU-11" value="Preferências" style="whiteSpace=wrap;html=1;rounded=0;" vertex="1" parent="1">
          <mxGeometry x="-160" y="150" width="120" height="60" as="geometry" />
        </mxCell>
      </root>
    </mxGraphModel>
  </diagram>
</mxfile>
